<svg xmlns="http://www.w3.org/2000/svg"><symbol id="navegacion-inicio" viewBox="0 0 24 24" fill="none" stroke="currentColor" stroke-width="1.65" stroke-linecap="round" stroke-linejoin="round"><rect x="3" y="3" width="7" height="7" rx="1.5"/><rect x="14" y="3" width="7" height="7" rx="1.5"/><rect x="3" y="14" width="7" height="7" rx="1.5"/><rect x="14" y="14" width="7" height="7" rx="1.5"/></symbol><symbol id="navegacion-blueprint" viewBox="0 0 24 24" fill="none" stroke="currentColor" stroke-width="1.65" stroke-linecap="round" stroke-linejoin="round"><rect x="3" y="4" width="18" height="16" rx="1.5"/><path d="M3 9h18M3 14h18M8 4v16M15 4v16"/></symbol><symbol id="navegacion-simulacion" viewBox="0 0 24 24" fill="none" stroke="currentColor" stroke-width="1.65" stroke-linecap="round" stroke-linejoin="round"><circle cx="12" cy="12" r="9"/><path d="m10 8 6 4-6 4Z"/></symbol><symbol id="navegacion-resultados" viewBox="0 0 24 24" fill="none" stroke="currentColor" stroke-width="1.65" stroke-linecap="round" stroke-linejoin="round"><path d="M14 3H5v18h14V8Zm0 0v5h5M8 17v-3m4 3v-6m4 6v-4"/></symbol><symbol id="navegacion-guia" viewBox="0 0 24 24" fill="none" stroke="currentColor" stroke-width="1.65" stroke-linecap="round" stroke-linejoin="round"><path d="M12 5c-3-2-6-2-9-1v15c3-1 6-1 9 1 3-2 6-2 9-1V4c-3-1-6-1-9 1Zm0 0v15"/></symbol><symbol id="navegacion-mapa-actores" viewBox="0 0 24 24" fill="none" stroke="currentColor" stroke-width="1.65" stroke-linecap="round" stroke-linejoin="round"><circle cx="12" cy="5" r="2.5"/><circle cx="5" cy="18" r="2.5"/><circle cx="19" cy="18" r="2.5"/><path d="M10.7 7.2 6.3 15.8M13.3 7.2l4.4 8.6M7.5 18h9"/></symbol><symbol id="navegacion-escenario" viewBox="0 0 24 24" fill="none" stroke="currentColor" stroke-width="1.65" stroke-linecap="round" stroke-linejoin="round"><path d="M3 7V5h7l2 2h9v13H3Zm0 3h18"/></symbol><symbol id="navegacion-sesiones" viewBox="0 0 24 24" fill="none" stroke="currentColor" stroke-width="1.65" stroke-linecap="round" stroke-linejoin="round"><rect x="3" y="4" width="18" height="16" rx="2"/><path d="M3 9h18M14 9v11M6 16l2-3 3 2M17 13h1m-1 3h1"/></symbol><symbol id="navegacion-configuracion" viewBox="0 0 24 24" fill="none" stroke="currentColor" stroke-width="1.65" stroke-linecap="round" stroke-linejoin="round"><path d="m10 3-.5 3-2 .9-2.6-1.1-2 3.4L5 11v2l-2.1 1.8 2 3.4 2.6-1.1 2 .9.5 3h4l.5-3 2-.9 2.6 1.1 2-3.4L19 13v-2l2.1-1.8-2-3.4-2.6 1.1-2-.9L14 3Z"/><circle cx="12" cy="12" r="3"/></symbol><symbol id="navegacion-archivo-sesiones" viewBox="0 0 24 24" fill="none" stroke="currentColor" stroke-width="1.65" stroke-linecap="round" stroke-linejoin="round"><rect x="3" y="3" width="18" height="4" rx="1"/><path d="M5 7v14h14V7M9 11h6"/></symbol><symbol id="navegacion-validacion" viewBox="0 0 24 24" fill="none" stroke="currentColor" stroke-width="1.65" stroke-linecap="round" stroke-linejoin="round"><rect x="5" y="5" width="14" height="16" rx="1.5"/><rect x="9" y="3" width="6" height="4" rx="1"/><path d="m8 13 2 2 5-5M8 18h8"/></symbol><symbol id="navegacion-comparacion" viewBox="0 0 24 24" fill="none" stroke="currentColor" stroke-width="1.65" stroke-linecap="round" stroke-linejoin="round"><path d="M4 7h15m-3-3 3 3-3 3M20 17H5m3-3-3 3 3 3M12 3v2m0 6v2m0 6v2"/></symbol><symbol id="fases-antes" viewBox="0 0 24 24" fill="none" stroke="currentColor" stroke-width="1.65" stroke-linecap="round" stroke-linejoin="round"><path d="M4 5v14M8 12h12m-5-5 5 5-5 5"/></symbol><symbol id="fases-durante" viewBox="0 0 24 24" fill="none" stroke="currentColor" stroke-width="1.65" stroke-linecap="round" stroke-linejoin="round"><path d="M3 12h18m-5-5 5 5-5 5"/><rect x="7" y="4" width="5" height="16" rx="1"/></symbol><symbol id="fases-despues" viewBox="0 0 24 24" fill="none" stroke="currentColor" stroke-width="1.65" stroke-linecap="round" stroke-linejoin="round"><path d="M20 5v14M3 12h13m-5-5 5 5-5 5"/></symbol><symbol id="fases-flujo-actual" viewBox="0 0 24 24" fill="none" stroke="currentColor" stroke-width="1.65" stroke-linecap="round" stroke-linejoin="round"><rect x="3" y="3" width="6" height="6" rx="1"/><rect x="15" y="15" width="6" height="6" rx="1"/><path d="m11 5 2 0m3 0h3v6M5 12v7h6m2 0h0"/></symbol><symbol id="fases-flujo-propuesto" viewBox="0 0 24 24" fill="none" stroke="currentColor" stroke-width="1.65" stroke-linecap="round" stroke-linejoin="round"><rect x="3" y="3" width="6" height="6" rx="1"/><rect x="15" y="15" width="6" height="6" rx="1"/><path d="M9 6h9v9M6 9v9h9m-3-3 3 3-3 3"/></symbol><symbol id="actores-trabajador" viewBox="0 0 24 24" fill="none" stroke="currentColor" stroke-width="1.65" stroke-linecap="round" stroke-linejoin="round"><circle cx="9" cy="6" r="3"/><path d="M3 19v-3a6 6 0 0 1 9-5M6 16v3"/><rect x="13" y="13" width="8" height="7" rx="1"/><path d="M15 13v-2h4v2M13 16h8m-4-1v2"/></symbol><symbol id="actores-familia" viewBox="0 0 24 24" fill="none" stroke="currentColor" stroke-width="1.65" stroke-linecap="round" stroke-linejoin="round"><circle cx="7" cy="7" r="2.5"/><circle cx="17" cy="7" r="2.5"/><circle cx="12" cy="14" r="2"/><path d="M2.5 18v-3a4.5 4.5 0 0 1 5-4.5M21.5 18v-3a4.5 4.5 0 0 0-5-4.5M8.5 21v-1a3.5 3.5 0 0 1 7 0v1"/></symbol><symbol id="actores-eps" viewBox="0 0 24 24" fill="none" stroke="currentColor" stroke-width="1.65" stroke-linecap="round" stroke-linejoin="round"><path d="M12 2 3 6v6c0 5 5 8 9 10 4-2 9-5 9-10V6ZM6 12h3l2-4 3 8 2-4h2"/></symbol><symbol id="actores-arl" viewBox="0 0 24 24" fill="none" stroke="currentColor" stroke-width="1.65" stroke-linecap="round" stroke-linejoin="round"><path d="M12 2 3 6v6c0 5 5 8 9 10 4-2 9-5 9-10V6ZM7 14v-2a5 5 0 0 1 10 0v2M6 14h12M12 7v4"/></symbol><symbol id="actores-afp" viewBox="0 0 24 24" fill="none" stroke="currentColor" stroke-width="1.65" stroke-linecap="round" stroke-linejoin="round"><path d="M7 8c2-2 7-2 9 0l3-2v5h2v5h-3l-1 4h-3v-3h-4v3H7l-1-4a5 5 0 0 1-3-5M3 11l-1-2M9 9h4"/><circle cx="12" cy="3.5" r="1.5"/><circle cx="16" cy="11" r="0.5"/></symbol><symbol id="actores-ips" viewBox="0 0 24 24" fill="none" stroke="currentColor" stroke-width="1.65" stroke-linecap="round" stroke-linejoin="round"><rect x="5" y="3" width="14" height="18" rx="1"/><path d="M9 21v-5h6v5M8 8h2l1-2 2 5 1-3h2M8 13h2m4 0h2"/></symbol><symbol id="actores-empleador" viewBox="0 0 24 24" fill="none" stroke="currentColor" stroke-width="1.65" stroke-linecap="round" stroke-linejoin="round"><path d="M3 21V10l6-4v5l6-4v5h6v9ZM17 12V3h3v9M6 16h1m3 0h1m3 0h1m3 0h1"/></symbol><symbol id="actores-junta-regional" viewBox="0 0 24 24" fill="none" stroke="currentColor" stroke-width="1.65" stroke-linecap="round" stroke-linejoin="round"><rect x="3" y="14" width="18" height="7" rx="1"/><circle cx="8" cy="6" r="2"/><circle cx="16" cy="6" r="2"/><path d="M4 12a4 4 0 0 1 8 0m0 0a4 4 0 0 1 8 0M7 17h3m4 0h3"/></symbol><symbol id="actores-junta-nacional" viewBox="0 0 24 24" fill="none" stroke="currentColor" stroke-width="1.65" stroke-linecap="round" stroke-linejoin="round"><path d="m3 7 9-5 9 5ZM3 21h18M5 10v8m5-8v8m4-8v8m5-8v8M3 18h18"/></symbol><symbol id="actores-minsalud" viewBox="0 0 24 24" fill="none" stroke="currentColor" stroke-width="1.65" stroke-linecap="round" stroke-linejoin="round"><path d="m3 7 9-4 9 4M5 9v11h14V9M3 21h18M8 13h2l1-3 2 6 1-3h2"/></symbol><symbol id="actores-mintrabajo" viewBox="0 0 24 24" fill="none" stroke="currentColor" stroke-width="1.65" stroke-linecap="round" stroke-linejoin="round"><path d="m3 7 9-4 9 4M4 9v12h16V9"/><rect x="7" y="13" width="10" height="5" rx="1"/><path d="M10 13v-2h4v2M7 15.5h10"/></symbol><symbol id="actores-supersalud" viewBox="0 0 24 24" fill="none" stroke="currentColor" stroke-width="1.65" stroke-linecap="round" stroke-linejoin="round"><path d="M12 2 3 6v6c0 5 5 8 9 10 4-2 9-5 9-10V6ZM6 12s2-4 6-4 6 4 6 4-2 4-6 4-6-4-6-4Z"/><circle cx="12" cy="12" r="1.5"/></symbol><symbol id="actores-jueces" viewBox="0 0 24 24" fill="none" stroke="currentColor" stroke-width="1.65" stroke-linecap="round" stroke-linejoin="round"><path d="M12 3v16M7 21h10M4 7h16M6 7l-3 7h6Zm12 0-3 7h6ZM3 14q3 5 6 0m6 0q3 5 6 0"/></symbol><symbol id="actores-modulo" viewBox="0 0 24 24" fill="none" stroke="currentColor" stroke-width="1.65" stroke-linecap="round" stroke-linejoin="round"><rect x="8" y="8" width="8" height="8" rx="1.5"/><circle cx="4" cy="4" r="2"/><circle cx="20" cy="4" r="2"/><circle cx="4" cy="20" r="2"/><circle cx="20" cy="20" r="2"/><path d="m5.5 5.5 2.5 2.5m8 0 2.5-2.5m-13 13L8 16m8 0 2.5 2.5"/></symbol><symbol id="actores-facilitador" viewBox="0 0 24 24" fill="none" stroke="currentColor" stroke-width="1.65" stroke-linecap="round" stroke-linejoin="round"><rect x="3" y="3" width="18" height="12" rx="1.5"/><path d="M12 15v4M8 21l4-2 4 2M7 11l3-3 3 2 4-4"/></symbol><symbol id="actores-participante" viewBox="0 0 24 24" fill="none" stroke="currentColor" stroke-width="1.65" stroke-linecap="round" stroke-linejoin="round"><circle cx="12" cy="7" r="3"/><path d="M5 21v-3a7 7 0 0 1 14 0v3M9 17v4m6-4v4"/></symbol><symbol id="actores-observador" viewBox="0 0 24 24" fill="none" stroke="currentColor" stroke-width="1.65" stroke-linecap="round" stroke-linejoin="round"><path d="M2 12s4-7 10-7 10 7 10 7-4 7-10 7S2 12 2 12Z"/><circle cx="12" cy="12" r="3"/></symbol><symbol id="actores-referente-juridico" viewBox="0 0 24 24" fill="none" stroke="currentColor" stroke-width="1.65" stroke-linecap="round" stroke-linejoin="round"><path d="M12 3v16M7 21h10M4 7h16M6 7l-3 7h6Zm12 0-3 7h6ZM3 14q3 5 6 0m6 0q3 5 6 0"/></symbol><symbol id="carriles-acciones-usuario" viewBox="0 0 24 24" fill="none" stroke="currentColor" stroke-width="1.65" stroke-linecap="round" stroke-linejoin="round"><circle cx="12" cy="7" r="3"/><path d="M5 21v-3a7 7 0 0 1 14 0v3M9 17v4m6-4v4"/></symbol><symbol id="carriles-puntos-contacto" viewBox="0 0 24 24" fill="none" stroke="currentColor" stroke-width="1.65" stroke-linecap="round" stroke-linejoin="round"><circle cx="7" cy="8" r="3"/><circle cx="17" cy="16" r="3"/><path d="M10 8h4a3 3 0 0 1 3 3v2M7 11v5h5"/></symbol><symbol id="carriles-frontstage" viewBox="0 0 24 24" fill="none" stroke="currentColor" stroke-width="1.65" stroke-linecap="round" stroke-linejoin="round"><path d="M3 19h18M3 14h18M5 14v5m14-5v5"/><circle cx="8" cy="6" r="2.5"/><path d="M4 12a4 4 0 0 1 8 0"/><rect x="15" y="6" width="5" height="5" rx="1"/></symbol><symbol id="carriles-backstage" viewBox="0 0 24 24" fill="none" stroke="currentColor" stroke-width="1.65" stroke-linecap="round" stroke-linejoin="round"><path d="M3 3h7v18H3M6.5 3v18M13 7h8M13 12h8M13 17h8"/><circle cx="14" cy="7" r="1.5"/><circle cx="19" cy="12" r="1.5"/><circle cx="16" cy="17" r="1.5"/></symbol><symbol id="carriles-soporte" viewBox="0 0 24 24" fill="none" stroke="currentColor" stroke-width="1.65" stroke-linecap="round" stroke-linejoin="round"><path d="M4 12v-2a8 8 0 0 1 16 0v2"/><rect x="3" y="11" width="4" height="7" rx="1.5"/><rect x="17" y="11" width="4" height="7" rx="1.5"/><path d="M19 18v1a2 2 0 0 1-2 2h-5"/></symbol><symbol id="carriles-linea-interaccion" viewBox="0 0 24 24" fill="none" stroke="currentColor" stroke-width="1.65" stroke-linecap="round" stroke-linejoin="round"><path d="M3 12h3m3 0h3m3 0h3m3 0h0M8 3v6m-2-2 2 2 2-2M16 21v-6m-2 2 2-2 2 2"/></symbol><symbol id="carriles-linea-visibilidad" viewBox="0 0 24 24" fill="none" stroke="currentColor" stroke-width="1.65" stroke-linecap="round" stroke-linejoin="round"><path d="M3 16h3m3 0h3m3 0h3m3 0h0M4 8s3-4 8-4 8 4 8 4-3 4-8 4-8-4-8-4Z"/><circle cx="12" cy="8" r="1.8"/></symbol><symbol id="carriles-linea-interna" viewBox="0 0 24 24" fill="none" stroke="currentColor" stroke-width="1.65" stroke-linecap="round" stroke-linejoin="round"><path d="M3 12h3m3 0h3m3 0h3m3 0h0"/><rect x="8" y="2" width="8" height="6" rx="1"/><rect x="8" y="16" width="8" height="6" rx="1"/><path d="M12 8v8"/></symbol><symbol id="pasos-a1-inicio-incapacidad" viewBox="0 0 24 24" fill="none" stroke="currentColor" stroke-width="1.65" stroke-linecap="round" stroke-linejoin="round"><path d="M14 3H5v18h14V8Zm0 0v5h5M7 14h2l2-3 2 6 2-3h2"/></symbol><symbol id="pasos-a2-certificados-prorrogas" viewBox="0 0 24 24" fill="none" stroke="currentColor" stroke-width="1.65" stroke-linecap="round" stroke-linejoin="round"><rect x="3" y="5" width="18" height="16" rx="2"/><path d="M7 3v4m10-4v4M3 10h18M7 14h2m4 0h2m-8 3h2"/></symbol><symbol id="pasos-a3-evidencia-laboral" viewBox="0 0 24 24" fill="none" stroke="currentColor" stroke-width="1.65" stroke-linecap="round" stroke-linejoin="round"><path d="M3 21h18M5 21V10h14v11M3 10l9-7 9 7M9 21v-5h6v5"/><circle cx="12" cy="11.5" r="1.5"/></symbol><symbol id="pasos-e1-calificacion-origen" viewBox="0 0 24 24" fill="none" stroke="currentColor" stroke-width="1.65" stroke-linecap="round" stroke-linejoin="round"><circle cx="12" cy="12" r="9"/><circle cx="12" cy="12" r="4"/><path d="M12 2v4m10 6h-4m-6 10v-4M2 12h4"/></symbol><symbol id="pasos-e2-controversia" viewBox="0 0 24 24" fill="none" stroke="currentColor" stroke-width="1.65" stroke-linecap="round" stroke-linejoin="round"><path d="M3 5h8v6H7l-4 3Zm10 5h8v10l-4-3h-4M5 20l4-4m-4 0 4 4"/></symbol><symbol id="pasos-e3-dictamen" viewBox="0 0 24 24" fill="none" stroke="currentColor" stroke-width="1.65" stroke-linecap="round" stroke-linejoin="round"><path d="M14 3H5v18h14V8Zm0 0v5h5m-11 6 3 3 5-5"/></symbol><symbol id="pasos-e4-apelacion" viewBox="0 0 24 24" fill="none" stroke="currentColor" stroke-width="1.65" stroke-linecap="round" stroke-linejoin="round"><path d="m5 4 8 8m-5-9 7 7-4 4-7-7ZM12 18h9v3h-9M3 14v6h5m-5 0 5-5"/></symbol><symbol id="pasos-e5-pago" viewBox="0 0 24 24" fill="none" stroke="currentColor" stroke-width="1.65" stroke-linecap="round" stroke-linejoin="round"><rect x="2" y="6" width="20" height="13" rx="2"/><path d="M2 10h20M6 15h4m7-9V3h-4"/></symbol><symbol id="pasos-d1-reintegro" viewBox="0 0 24 24" fill="none" stroke="currentColor" stroke-width="1.65" stroke-linecap="round" stroke-linejoin="round"><path d="M4 8h10a6 6 0 0 1 6 6v6M8 4 4 8l4 4"/><rect x="3" y="15" width="10" height="6" rx="1"/><path d="M6 15v-2h4v2"/></symbol><symbol id="pasos-d2-prestacion" viewBox="0 0 24 24" fill="none" stroke="currentColor" stroke-width="1.65" stroke-linecap="round" stroke-linejoin="round"><circle cx="12" cy="9" r="6"/><path d="m9 9 2 2 4-4M8 14l-2 8 6-3 6 3-2-8"/></symbol><symbol id="pasos-d3-seguimiento" viewBox="0 0 24 24" fill="none" stroke="currentColor" stroke-width="1.65" stroke-linecap="round" stroke-linejoin="round"><circle cx="10" cy="10" r="7"/><path d="m15 15 6 6M10 6v4l3 2"/></symbol><symbol id="gobernanza-custodia" viewBox="0 0 24 24" fill="none" stroke="currentColor" stroke-width="1.65" stroke-linecap="round" stroke-linejoin="round"><path d="M2 4c0-2 6-2 6 0v5c0 2-6 2-6 0Zm0 0c0 2 6 2 6 0M16 4c0-2 6-2 6 0v5c0 2-6 2-6 0Zm0 0c0 2 6 2 6 0M9 17c0-2 6-2 6 0v4c0 2-6 2-6 0Zm0 0c0 2 6 2 6 0M5 11v2h14v-2m-7 2v2"/></symbol><symbol id="gobernanza-finalidad" viewBox="0 0 24 24" fill="none" stroke="currentColor" stroke-width="1.65" stroke-linecap="round" stroke-linejoin="round"><circle cx="10" cy="10" r="7"/><circle cx="10" cy="10" r="3"/><path d="m15 15 6 6M10 3V2m-7 8H2"/></symbol><symbol id="gobernanza-minimo-necesario" viewBox="0 0 24 24" fill="none" stroke="currentColor" stroke-width="1.65" stroke-linecap="round" stroke-linejoin="round"><rect x="3" y="4" width="18" height="16" rx="1.5"/><path d="M3 9h18M10 9v11m4-7h3m-3 3h3"/><circle cx="6.5" cy="14.5" r="1.5"/></symbol><symbol id="gobernanza-responsable-plazo" viewBox="0 0 24 24" fill="none" stroke="currentColor" stroke-width="1.65" stroke-linecap="round" stroke-linejoin="round"><circle cx="12" cy="13" r="8"/><path d="M12 8v5l3 2M9 2h6m-3 0v3m7 1 2 2"/></symbol><symbol id="gobernanza-trazabilidad" viewBox="0 0 24 24" fill="none" stroke="currentColor" stroke-width="1.65" stroke-linecap="round" stroke-linejoin="round"><path d="M5 5h14M5 12h14M5 19h14M5 5v14"/><circle cx="5" cy="5" r="2"/><circle cx="5" cy="12" r="2"/><circle cx="5" cy="19" r="2"/><path d="M10 8h5m-5 7h5"/></symbol><symbol id="gobernanza-etica" viewBox="0 0 24 24" fill="none" stroke="currentColor" stroke-width="1.65" stroke-linecap="round" stroke-linejoin="round"><path d="M12 21S3 16 3 9c0-5 6-7 9-2 3-5 9-3 9 2 0 7-9 12-9 12Z"/><path d="m8 12 3 3 5-5"/></symbol><symbol id="gobernanza-autenticacion" viewBox="0 0 24 24" fill="none" stroke="currentColor" stroke-width="1.65" stroke-linecap="round" stroke-linejoin="round"><rect x="5" y="10" width="14" height="11" rx="2"/><path d="M8 10V6a4 4 0 0 1 8 0v4"/><circle cx="12" cy="15" r="1"/><path d="M12 16v2"/></symbol><symbol id="gobernanza-autorizacion" viewBox="0 0 24 24" fill="none" stroke="currentColor" stroke-width="1.65" stroke-linecap="round" stroke-linejoin="round"><rect x="5" y="10" width="14" height="11" rx="2"/><path d="M8 10V6a4 4 0 0 1 8 0"/><circle cx="12" cy="15" r="1"/><path d="M12 16v2"/></symbol><symbol id="gobernanza-contrato-datos" viewBox="0 0 24 24" fill="none" stroke="currentColor" stroke-width="1.65" stroke-linecap="round" stroke-linejoin="round"><path d="M13 3H4v18h11M13 3v6h7V9l-7-6M7 12h6m-6 4h4m4 3 5-5 2 2-5 5h-2Z"/></symbol><symbol id="documentos-expediente" viewBox="0 0 24 24" fill="none" stroke="currentColor" stroke-width="1.65" stroke-linecap="round" stroke-linejoin="round"><path d="M3 7V5h7l2 2h9v13H3Zm0 3h18"/></symbol><symbol id="documentos-historia-clinica" viewBox="0 0 24 24" fill="none" stroke="currentColor" stroke-width="1.65" stroke-linecap="round" stroke-linejoin="round"><path d="M14 3H5v18h14V8Zm0 0v5h5M7 14h2l2-3 2 6 2-3h2"/></symbol><symbol id="documentos-incapacidad" viewBox="0 0 24 24" fill="none" stroke="currentColor" stroke-width="1.65" stroke-linecap="round" stroke-linejoin="round"><rect x="3" y="3" width="18" height="15" rx="1.5"/><path d="M7 7h10m-10 4h5"/><circle cx="16" cy="14" r="3"/><path d="m14 17-1 5 3-2 3 2-1-5"/></symbol><symbol id="documentos-apt" viewBox="0 0 24 24" fill="none" stroke="currentColor" stroke-width="1.65" stroke-linecap="round" stroke-linejoin="round"><path d="M3 21h18M5 21V10h14v11M3 10l9-7 9 7M9 21v-5h6v5"/><circle cx="12" cy="11.5" r="1.5"/></symbol><symbol id="documentos-dictamen" viewBox="0 0 24 24" fill="none" stroke="currentColor" stroke-width="1.65" stroke-linecap="round" stroke-linejoin="round"><path d="M14 3H5v18h14V8Zm0 0v5h5m-11 6 3 3 5-5"/></symbol><symbol id="documentos-notificacion" viewBox="0 0 24 24" fill="none" stroke="currentColor" stroke-width="1.65" stroke-linecap="round" stroke-linejoin="round"><rect x="3" y="5" width="18" height="14" rx="2"/><path d="m3 6 9 7 9-7m-7 10 2 2 5-5"/></symbol><symbol id="documentos-datos-sinteticos" viewBox="0 0 24 24" fill="none" stroke="currentColor" stroke-width="1.65" stroke-linecap="round" stroke-linejoin="round"><path d="M9 3v6L3 20c0 1 18 1 18 0L15 9V3M8 3h8M6 15h12"/><circle cx="10" cy="17" r="0.5"/><circle cx="14" cy="18" r="0.5"/></symbol><symbol id="documentos-documento-version" viewBox="0 0 24 24" fill="none" stroke="currentColor" stroke-width="1.65" stroke-linecap="round" stroke-linejoin="round"><path d="M14 3H5v18h14V8Zm0 0v5h5M8 12h8M8 16h4"/><circle cx="16.5" cy="18" r="3"/></symbol><symbol id="documentos-evidencia" viewBox="0 0 24 24" fill="none" stroke="currentColor" stroke-width="1.65" stroke-linecap="round" stroke-linejoin="round"><path d="M4 7V4h7l2 3h7v4M3 10h13l-2 11H3Z"/><circle cx="18" cy="16" r="3"/><path d="m20 18 2 3"/></symbol><symbol id="documentos-historial-laboral" viewBox="0 0 24 24" fill="none" stroke="currentColor" stroke-width="1.65" stroke-linecap="round" stroke-linejoin="round"><path d="M14 3H5v18h14V8Zm0 0v5h5M8 12h8m-8 4h8"/></symbol><symbol id="acciones-crear" viewBox="0 0 24 24" fill="none" stroke="currentColor" stroke-width="1.65" stroke-linecap="round" stroke-linejoin="round"><circle cx="12" cy="12" r="9"/><path d="M12 7v10M7 12h10"/></symbol><symbol id="acciones-editar" viewBox="0 0 24 24" fill="none" stroke="currentColor" stroke-width="1.65" stroke-linecap="round" stroke-linejoin="round"><path d="m4 16 12-12 4 4L8 20H4Zm9-9 4 4"/></symbol><symbol id="acciones-guardar" viewBox="0 0 24 24" fill="none" stroke="currentColor" stroke-width="1.65" stroke-linecap="round" stroke-linejoin="round"><path d="M4 3h13l4 4v14H3V3ZM7 3v6h10V3M7 21v-8h10v8m-3-7v5"/></symbol><symbol id="acciones-consultar" viewBox="0 0 24 24" fill="none" stroke="currentColor" stroke-width="1.65" stroke-linecap="round" stroke-linejoin="round"><circle cx="10.5" cy="10.5" r="7.5"/><path d="m16 16 6 6"/></symbol><symbol id="acciones-solicitar" viewBox="0 0 24 24" fill="none" stroke="currentColor" stroke-width="1.65" stroke-linecap="round" stroke-linejoin="round"><path d="M13 3H4v18h10M13 3v6h6V9l-6-6M7 12h4m-4 4h4M15 15h7m-3-3 3 3-3 3"/></symbol><symbol id="acciones-entregar" viewBox="0 0 24 24" fill="none" stroke="currentColor" stroke-width="1.65" stroke-linecap="round" stroke-linejoin="round"><path d="m3 8 9-5 9 5v11l-9 3-9-3Zm0 0 9 4 9-4m-9 4v10M7 5l10 5"/></symbol><symbol id="acciones-decidir" viewBox="0 0 24 24" fill="none" stroke="currentColor" stroke-width="1.65" stroke-linecap="round" stroke-linejoin="round"><path d="M14 3H5v18h14V8Zm0 0v5h5m-11 6 3 3 5-5"/></symbol><symbol id="acciones-notificar" viewBox="0 0 24 24" fill="none" stroke="currentColor" stroke-width="1.65" stroke-linecap="round" stroke-linejoin="round"><path d="M5 16V10a7 7 0 0 1 14 0v6l2 2H3ZM9 21h6M12 3V2"/></symbol><symbol id="acciones-confirmar-recepcion" viewBox="0 0 24 24" fill="none" stroke="currentColor" stroke-width="1.65" stroke-linecap="round" stroke-linejoin="round"><rect x="3" y="5" width="18" height="14" rx="2"/><path d="m3 6 9 7 9-7m-7 10 2 2 5-5"/></symbol><symbol id="acciones-controvertir" viewBox="0 0 24 24" fill="none" stroke="currentColor" stroke-width="1.65" stroke-linecap="round" stroke-linejoin="round"><path d="m5 4 8 8m-5-9 7 7-4 4-7-7ZM12 18h9v3h-9M3 14v6h5m-5 0 5-5"/></symbol><symbol id="acciones-vigilar" viewBox="0 0 24 24" fill="none" stroke="currentColor" stroke-width="1.65" stroke-linecap="round" stroke-linejoin="round"><path d="M12 2 3 6v6c0 5 5 8 9 10 4-2 9-5 9-10V6ZM6 12s2-4 6-4 6 4 6 4-2 4-6 4-6-4-6-4Z"/><circle cx="12" cy="12" r="1.5"/></symbol><symbol id="acciones-observar" viewBox="0 0 24 24" fill="none" stroke="currentColor" stroke-width="1.65" stroke-linecap="round" stroke-linejoin="round"><path d="M3 3h18v14H9l-6 4ZM7 8h10m-10 4h7"/></symbol><symbol id="acciones-pasar-turno" viewBox="0 0 24 24" fill="none" stroke="currentColor" stroke-width="1.65" stroke-linecap="round" stroke-linejoin="round"><circle cx="6" cy="6" r="2.5"/><circle cx="18" cy="18" r="2.5"/><path d="M2 14v-2a4 4 0 0 1 8 0m4-6h7m-3-3 3 3-3 3M3 19h7m-3-3 3 3-3 3"/></symbol><symbol id="acciones-iniciar" viewBox="0 0 24 24" fill="none" stroke="currentColor" stroke-width="1.65" stroke-linecap="round" stroke-linejoin="round"><circle cx="12" cy="12" r="9"/><path d="m10 8 6 4-6 4Z"/></symbol><symbol id="acciones-pausar" viewBox="0 0 24 24" fill="none" stroke="currentColor" stroke-width="1.65" stroke-linecap="round" stroke-linejoin="round"><circle cx="12" cy="12" r="9"/><path d="M9 8v8m6-8v8"/></symbol><symbol id="acciones-detener" viewBox="0 0 24 24" fill="none" stroke="currentColor" stroke-width="1.65" stroke-linecap="round" stroke-linejoin="round"><circle cx="12" cy="12" r="9"/><rect x="8" y="8" width="8" height="8" rx="1"/></symbol><symbol id="acciones-siguiente" viewBox="0 0 24 24" fill="none" stroke="currentColor" stroke-width="1.65" stroke-linecap="round" stroke-linejoin="round"><path d="M4 12h15m-6-6 6 6-6 6M21 5v14"/></symbol><symbol id="acciones-anterior" viewBox="0 0 24 24" fill="none" stroke="currentColor" stroke-width="1.65" stroke-linecap="round" stroke-linejoin="round"><path d="M20 12H5m6-6-6 6 6 6M3 5v14"/></symbol><symbol id="acciones-aceptar" viewBox="0 0 24 24" fill="none" stroke="currentColor" stroke-width="1.65" stroke-linecap="round" stroke-linejoin="round"><circle cx="12" cy="12" r="9"/><path d="m7 12 3 3 7-7"/></symbol><symbol id="acciones-ajustar" viewBox="0 0 24 24" fill="none" stroke="currentColor" stroke-width="1.65" stroke-linecap="round" stroke-linejoin="round"><path d="M4 6h16M4 12h16M4 18h16"/><circle cx="8" cy="6" r="2"/><circle cx="16" cy="12" r="2"/><circle cx="10" cy="18" r="2"/></symbol><symbol id="acciones-rechazar" viewBox="0 0 24 24" fill="none" stroke="currentColor" stroke-width="1.65" stroke-linecap="round" stroke-linejoin="round"><circle cx="12" cy="12" r="9"/><path d="m8 8 8 8m-8 0 8-8"/></symbol><symbol id="acciones-cerrar" viewBox="0 0 24 24" fill="none" stroke="currentColor" stroke-width="1.65" stroke-linecap="round" stroke-linejoin="round"><path d="m5 5 14 14M5 19 19 5"/></symbol><symbol id="acciones-cerrar-sesion" viewBox="0 0 24 24" fill="none" stroke="currentColor" stroke-width="1.65" stroke-linecap="round" stroke-linejoin="round"><circle cx="12" cy="9" r="6"/><path d="m9 9 2 2 4-4M8 14l-2 8 6-3 6 3-2-8"/></symbol><symbol id="acciones-reiniciar" viewBox="0 0 24 24" fill="none" stroke="currentColor" stroke-width="1.65" stroke-linecap="round" stroke-linejoin="round"><path d="M3 10a9 9 0 1 1 1 7M3 3v7h7"/><path d="M12 7v5l3 2"/></symbol><symbol id="acciones-copiar" viewBox="0 0 24 24" fill="none" stroke="currentColor" stroke-width="1.65" stroke-linecap="round" stroke-linejoin="round"><rect x="8" y="8" width="13" height="13" rx="1.5"/><path d="M16 5V3H3v13h2"/></symbol><symbol id="acciones-compartir-enlace" viewBox="0 0 24 24" fill="none" stroke="currentColor" stroke-width="1.65" stroke-linecap="round" stroke-linejoin="round"><path d="m9 8 3-3a5 5 0 0 1 7 7l-3 3M15 16l-3 3a5 5 0 0 1-7-7l3-3m0 7 8-8"/></symbol><symbol id="acciones-importar" viewBox="0 0 24 24" fill="none" stroke="currentColor" stroke-width="1.65" stroke-linecap="round" stroke-linejoin="round"><path d="M4 16v5h16v-5M12 3v12m-5-5 5 5 5-5"/></symbol><symbol id="acciones-exportar" viewBox="0 0 24 24" fill="none" stroke="currentColor" stroke-width="1.65" stroke-linecap="round" stroke-linejoin="round"><path d="M4 16v5h16v-5M12 15V3m-5 5 5-5 5 5"/></symbol><symbol id="acciones-imprimir" viewBox="0 0 24 24" fill="none" stroke="currentColor" stroke-width="1.65" stroke-linecap="round" stroke-linejoin="round"><path d="M6 8V3h12v5M6 18H3V9h18v9h-3M6 14h12v7H6Z"/><circle cx="17.5" cy="11" r="0.5"/></symbol><symbol id="acciones-eliminar" viewBox="0 0 24 24" fill="none" stroke="currentColor" stroke-width="1.65" stroke-linecap="round" stroke-linejoin="round"><path d="M3 6h18M9 6V3h6v3M5 6l1 15h12l1-15M9 10v7m6-7v7"/></symbol><symbol id="acciones-expandir" viewBox="0 0 24 24" fill="none" stroke="currentColor" stroke-width="1.65" stroke-linecap="round" stroke-linejoin="round"><path d="M9 3H3v6m12-6h6v6M3 15v6h6m12-6v6h-6"/></symbol><symbol id="acciones-filtrar" viewBox="0 0 24 24" fill="none" stroke="currentColor" stroke-width="1.65" stroke-linecap="round" stroke-linejoin="round"><path d="M3 4h18l-7 8v7l-4 2v-9Z"/></symbol><symbol id="acciones-entrar" viewBox="0 0 24 24" fill="none" stroke="currentColor" stroke-width="1.65" stroke-linecap="round" stroke-linejoin="round"><path d="M13 3h8v18h-8M2 12h14m-5-5 5 5-5 5"/></symbol><symbol id="acciones-salir" viewBox="0 0 24 24" fill="none" stroke="currentColor" stroke-width="1.65" stroke-linecap="round" stroke-linejoin="round"><path d="M11 3H3v18h8m-2-9h13m-5-5 5 5-5 5"/></symbol><symbol id="acciones-archivar" viewBox="0 0 24 24" fill="none" stroke="currentColor" stroke-width="1.65" stroke-linecap="round" stroke-linejoin="round"><rect x="3" y="3" width="18" height="4" rx="1"/><path d="M5 7v14h14V7M9 11h6"/></symbol><symbol id="acciones-comparar" viewBox="0 0 24 24" fill="none" stroke="currentColor" stroke-width="1.65" stroke-linecap="round" stroke-linejoin="round"><path d="M4 7h15m-3-3 3 3-3 3M20 17H5m3-3-3 3 3 3M12 3v2m0 6v2m0 6v2"/></symbol><symbol id="acciones-sincronizar" viewBox="0 0 24 24" fill="none" stroke="currentColor" stroke-width="1.65" stroke-linecap="round" stroke-linejoin="round"><path d="M3 9a9 9 0 0 1 16-3l2 3M21 3v6h-6M21 15a9 9 0 0 1-16 3l-2-3M3 21v-6h6"/></symbol><symbol id="acciones-ver-detalle" viewBox="0 0 24 24" fill="none" stroke="currentColor" stroke-width="1.65" stroke-linecap="round" stroke-linejoin="round"><path d="M2 12s4-7 10-7 10 7 10 7-4 7-10 7S2 12 2 12Z"/><circle cx="12" cy="12" r="3"/></symbol><symbol id="estados-pendiente" viewBox="0 0 24 24" fill="none" stroke="currentColor" stroke-width="1.65" stroke-linecap="round" stroke-linejoin="round"><circle cx="12" cy="12" r="9"/><path d="M12 6v6l4 2"/></symbol><symbol id="estados-en-curso" viewBox="0 0 24 24" fill="none" stroke="currentColor" stroke-width="1.65" stroke-linecap="round" stroke-linejoin="round"><path d="M12 3a9 9 0 1 1-9 9M3 3v6h6"/><path d="m10 9 5 3-5 3Z"/></symbol><symbol id="estados-bloqueado" viewBox="0 0 24 24" fill="none" stroke="currentColor" stroke-width="1.65" stroke-linecap="round" stroke-linejoin="round"><rect x="5" y="10" width="14" height="11" rx="2"/><path d="M8 10V6a4 4 0 0 1 8 0v4"/><circle cx="12" cy="15" r="1"/><path d="M12 16v2"/></symbol><symbol id="estados-completado" viewBox="0 0 24 24" fill="none" stroke="currentColor" stroke-width="1.65" stroke-linecap="round" stroke-linejoin="round"><circle cx="12" cy="12" r="9"/><path d="m7 12 3 3 7-7"/></symbol><symbol id="estados-requiere-ajustes" viewBox="0 0 24 24" fill="none" stroke="currentColor" stroke-width="1.65" stroke-linecap="round" stroke-linejoin="round"><path d="M4 6h16M4 12h16M4 18h16"/><circle cx="8" cy="6" r="2"/><circle cx="16" cy="12" r="2"/><circle cx="10" cy="18" r="2"/></symbol><symbol id="estados-conflicto-abierto" viewBox="0 0 24 24" fill="none" stroke="currentColor" stroke-width="1.65" stroke-linecap="round" stroke-linejoin="round"><path d="M3 5h8v6H7l-4 3Zm10 5h8v10l-4-3h-4M5 20l4-4m-4 0 4 4"/></symbol><symbol id="estados-advertencia" viewBox="0 0 24 24" fill="none" stroke="currentColor" stroke-width="1.65" stroke-linecap="round" stroke-linejoin="round"><path d="M12 3 2 21h20ZM12 9v5m0 3v1"/></symbol><symbol id="estados-sin-conexion" viewBox="0 0 24 24" fill="none" stroke="currentColor" stroke-width="1.65" stroke-linecap="round" stroke-linejoin="round"><path d="M3 3l18 18M2 9a15 15 0 0 1 5-3m4-1a15 15 0 0 1 11 4M5 13a10 10 0 0 1 5-2m4 0a10 10 0 0 1 5 2M8 17a6 6 0 0 1 8 0"/><circle cx="12" cy="21" r="0.5"/></symbol><symbol id="estados-conectado" viewBox="0 0 24 24" fill="none" stroke="currentColor" stroke-width="1.65" stroke-linecap="round" stroke-linejoin="round"><path d="M2 8a16 16 0 0 1 20 0M5 12a11 11 0 0 1 14 0M8 16a6 6 0 0 1 8 0"/><circle cx="12" cy="20" r="1"/></symbol><symbol id="estados-modo-local" viewBox="0 0 24 24" fill="none" stroke="currentColor" stroke-width="1.65" stroke-linecap="round" stroke-linejoin="round"><rect x="3" y="3" width="18" height="13" rx="1.5"/><path d="M12 16v5M8 21h8M7 12l3-3 3 2 4-4"/></symbol><symbol id="estados-guardado" viewBox="0 0 24 24" fill="none" stroke="currentColor" stroke-width="1.65" stroke-linecap="round" stroke-linejoin="round"><path d="M4 3h13l4 4v14H3V3ZM7 3v6h10V3M7 21v-8h10v8m-3-7v5"/></symbol><symbol id="estados-listo-revision" viewBox="0 0 24 24" fill="none" stroke="currentColor" stroke-width="1.65" stroke-linecap="round" stroke-linejoin="round"><rect x="5" y="5" width="14" height="16" rx="1.5"/><rect x="9" y="3" width="6" height="4" rx="1"/><path d="m8 13 2 2 5-5M8 18h8"/></symbol><symbol id="estados-cerrado" viewBox="0 0 24 24" fill="none" stroke="currentColor" stroke-width="1.65" stroke-linecap="round" stroke-linejoin="round"><circle cx="12" cy="9" r="6"/><path d="m9 9 2 2 4-4M8 14l-2 8 6-3 6 3-2-8"/></symbol><symbol id="investigacion-completitud" viewBox="0 0 24 24" fill="none" stroke="currentColor" stroke-width="1.65" stroke-linecap="round" stroke-linejoin="round"><rect x="3" y="3" width="18" height="18" rx="2"/><path d="m6 8 1 1 2-2m3 1h6m-12 5 1 1 2-2m3 1h6m-12 5 1 1 2-2m3 1h6"/></symbol><symbol id="investigacion-trazabilidad-accesos" viewBox="0 0 24 24" fill="none" stroke="currentColor" stroke-width="1.65" stroke-linecap="round" stroke-linejoin="round"><path d="M5 5h14M5 12h14M5 19h14M5 5v14"/><circle cx="5" cy="5" r="2"/><circle cx="5" cy="12" r="2"/><circle cx="5" cy="19" r="2"/><path d="M10 8h5m-5 7h5"/></symbol><symbol id="investigacion-claridad-roles" viewBox="0 0 24 24" fill="none" stroke="currentColor" stroke-width="1.65" stroke-linecap="round" stroke-linejoin="round"><circle cx="6" cy="5" r="2"/><circle cx="18" cy="5" r="2"/><rect x="3" y="13" width="7" height="8" rx="1"/><rect x="14" y="13" width="7" height="8" rx="1"/><path d="M6 7v6m12-6v6M6 10h12M6 17h1m10 0h1"/></symbol><symbol id="investigacion-barreras" viewBox="0 0 24 24" fill="none" stroke="currentColor" stroke-width="1.65" stroke-linecap="round" stroke-linejoin="round"><path d="M3 9h18v7H3ZM5 9l6 7m2-7 6 7M6 16v5m12-5v5M7 5V3m10 2V3"/></symbol><symbol id="investigacion-reprocesos" viewBox="0 0 24 24" fill="none" stroke="currentColor" stroke-width="1.65" stroke-linecap="round" stroke-linejoin="round"><path d="M3 8h15l-4-4m4 4-4 4M21 16H6l4 4m-4-4 4-4"/></symbol><symbol id="investigacion-tiempo" viewBox="0 0 24 24" fill="none" stroke="currentColor" stroke-width="1.65" stroke-linecap="round" stroke-linejoin="round"><circle cx="12" cy="12" r="9"/><path d="M12 6v6l4 3M3 12h2m14 0h2M12 19v2"/></symbol><symbol id="investigacion-linea-base" viewBox="0 0 24 24" fill="none" stroke="currentColor" stroke-width="1.65" stroke-linecap="round" stroke-linejoin="round"><path d="M3 21V3M3 17h18M7 14V9m5 5V5m5 9v-3"/></symbol><symbol id="investigacion-cambio-observado" viewBox="0 0 24 24" fill="none" stroke="currentColor" stroke-width="1.65" stroke-linecap="round" stroke-linejoin="round"><path d="M3 21V3m0 18h18M6 16l5-5 4 2 6-8m-5 0h5v5"/></symbol><symbol id="investigacion-pregunta-investigacion" viewBox="0 0 24 24" fill="none" stroke="currentColor" stroke-width="1.65" stroke-linecap="round" stroke-linejoin="round"><circle cx="12" cy="12" r="9"/><path d="M9 9a3 3 0 1 1 5 2c-2 1-2 2-2 3m0 3v.5"/></symbol><symbol id="investigacion-hipotesis" viewBox="0 0 24 24" fill="none" stroke="currentColor" stroke-width="1.65" stroke-linecap="round" stroke-linejoin="round"><path d="M9 3h6M10 3v6L4 20h16L14 9V3M7 15h10"/><path d="m10 17 1 1 3-3"/></symbol><symbol id="investigacion-requisitos" viewBox="0 0 24 24" fill="none" stroke="currentColor" stroke-width="1.65" stroke-linecap="round" stroke-linejoin="round"><path d="M13 3H4v18h16V10M13 3v7h7l-7-7M7 13h3m-3 4h3m3-2 2 2 3-4"/></symbol><symbol id="investigacion-sp1-caracterizacion" viewBox="0 0 24 24" fill="none" stroke="currentColor" stroke-width="1.65" stroke-linecap="round" stroke-linejoin="round"><circle cx="10.5" cy="10.5" r="7.5"/><path d="m16 16 6 6"/></symbol><symbol id="investigacion-sp2-diseno" viewBox="0 0 24 24" fill="none" stroke="currentColor" stroke-width="1.65" stroke-linecap="round" stroke-linejoin="round"><path d="M3 21 7 5l4 4ZM13 3h8v18h-8ZM13 7h3m-3 4h4m-4 4h3"/></symbol><symbol id="investigacion-sp3-evaluacion" viewBox="0 0 24 24" fill="none" stroke="currentColor" stroke-width="1.65" stroke-linecap="round" stroke-linejoin="round"><rect x="4" y="4" width="16" height="17" rx="1.5"/><path d="M9 4V2h6v2M7 10h4m-4 4h3"/><circle cx="16" cy="15" r="3"/><path d="m18 17 3 3"/></symbol><symbol id="investigacion-informe" viewBox="0 0 24 24" fill="none" stroke="currentColor" stroke-width="1.65" stroke-linecap="round" stroke-linejoin="round"><path d="M14 3H5v18h14V8Zm0 0v5h5M8 17v-3m4 3v-6m4 6v-4"/></symbol><symbol id="investigacion-archivo-csv" viewBox="0 0 24 24" fill="none" stroke="currentColor" stroke-width="1.65" stroke-linecap="round" stroke-linejoin="round"><path d="M14 3H4v18h16V9l-6-6Zm0 0v6h6M7 12h10m-10 4h10m-7-4v7m4-7v7"/></symbol><symbol id="investigacion-archivo-json" viewBox="0 0 24 24" fill="none" stroke="currentColor" stroke-width="1.65" stroke-linecap="round" stroke-linejoin="round"><path d="M14 3H4v18h16V9l-6-6Zm0 0v6h6M10 11H9v3l-1 1 1 1v3h1m4-8h1v3l1 1-1 1v3h-1"/></symbol><symbol id="investigacion-archivo-pdf" viewBox="0 0 24 24" fill="none" stroke="currentColor" stroke-width="1.65" stroke-linecap="round" stroke-linejoin="round"><path d="M14 3H4v18h16V9l-6-6Zm0 0v6h6M8 18l4-7 2 7m-5-2h5M7 19h10"/></symbol><symbol id="capitulos-indicadores" viewBox="0 0 24 24" fill="none" stroke="currentColor" stroke-width="1.65" stroke-linecap="round" stroke-linejoin="round"><path d="M14 3H5v18h14V8Zm0 0v5h5M8 17v-3m4 3v-6m4 6v-4"/></symbol><symbol id="capitulos-linea-tiempo" viewBox="0 0 24 24" fill="none" stroke="currentColor" stroke-width="1.65" stroke-linecap="round" stroke-linejoin="round"><circle cx="12" cy="12" r="9"/><path d="M12 6v6l4 3M3 12h2m14 0h2M12 19v2"/></symbol><symbol id="capitulos-gestion-actores" viewBox="0 0 24 24" fill="none" stroke="currentColor" stroke-width="1.65" stroke-linecap="round" stroke-linejoin="round"><circle cx="6" cy="5" r="2"/><circle cx="18" cy="5" r="2"/><rect x="3" y="13" width="7" height="8" rx="1"/><rect x="14" y="13" width="7" height="8" rx="1"/><path d="M6 7v6m12-6v6M6 10h12M6 17h1m10 0h1"/></symbol><symbol id="capitulos-evidencia-circulo" viewBox="0 0 24 24" fill="none" stroke="currentColor" stroke-width="1.65" stroke-linecap="round" stroke-linejoin="round"><path d="M4 7V4h7l2 3h7v4M3 10h13l-2 11H3Z"/><circle cx="18" cy="16" r="3"/><path d="m20 18 2 3"/></symbol><symbol id="capitulos-tensiones-rupturas" viewBox="0 0 24 24" fill="none" stroke="currentColor" stroke-width="1.65" stroke-linecap="round" stroke-linejoin="round"><path d="M3 5h8v6H7l-4 3Zm10 5h8v10l-4-3h-4M5 20l4-4m-4 0 4 4"/></symbol><symbol id="capitulos-hipotesis" viewBox="0 0 24 24" fill="none" stroke="currentColor" stroke-width="1.65" stroke-linecap="round" stroke-linejoin="round"><path d="M9 3h6M10 3v6L4 20h16L14 9V3M7 15h10"/><path d="m10 17 1 1 3-3"/></symbol><symbol id="capitulos-validacion-contratos" viewBox="0 0 24 24" fill="none" stroke="currentColor" stroke-width="1.65" stroke-linecap="round" stroke-linejoin="round"><path d="M13 3H4v18h11M13 3v6h7V9l-7-6M7 12h6m-6 4h4m4 3 5-5 2 2-5 5h-2Z"/></symbol><symbol id="capitulos-decision-avance" viewBox="0 0 24 24" fill="none" stroke="currentColor" stroke-width="1.65" stroke-linecap="round" stroke-linejoin="round"><rect x="5" y="5" width="14" height="16" rx="1.5"/><rect x="9" y="3" width="6" height="4" rx="1"/><path d="m8 13 2 2 5-5M8 18h8"/></symbol><symbol id="administracion-preparar" viewBox="0 0 24 24" fill="none" stroke="currentColor" stroke-width="1.65" stroke-linecap="round" stroke-linejoin="round"><path d="m10 3-.5 3-2 .9-2.6-1.1-2 3.4L5 11v2l-2.1 1.8 2 3.4 2.6-1.1 2 .9.5 3h4l.5-3 2-.9 2.6 1.1 2-3.4L19 13v-2l2.1-1.8-2-3.4-2.6 1.1-2-.9L14 3Z"/><circle cx="12" cy="12" r="3"/></symbol><symbol id="administracion-ejecutar" viewBox="0 0 24 24" fill="none" stroke="currentColor" stroke-width="1.65" stroke-linecap="round" stroke-linejoin="round"><circle cx="12" cy="12" r="9"/><path d="m10 8 6 4-6 4Z"/></symbol><symbol id="administracion-revisar" viewBox="0 0 24 24" fill="none" stroke="currentColor" stroke-width="1.65" stroke-linecap="round" stroke-linejoin="round"><rect x="4" y="4" width="16" height="17" rx="1.5"/><path d="M9 4V2h6v2M7 10h4m-4 4h3"/><circle cx="16" cy="15" r="3"/><path d="m18 17 3 3"/></symbol><symbol id="administracion-cerrar" viewBox="0 0 24 24" fill="none" stroke="currentColor" stroke-width="1.65" stroke-linecap="round" stroke-linejoin="round"><circle cx="12" cy="9" r="6"/><path d="m9 9 2 2 4-4M8 14l-2 8 6-3 6 3-2-8"/></symbol></svg>